<svg width="24" height="24" viewBox="0 0 24 24" fill="none" xmlns="http://www.w3.org/2000/svg">
<g clip-path="url(#clip0_13_95)">
<path fill-rule="evenodd" clip-rule="evenodd" d="M4.92188 0H19.0781C20.3824 0.00360791 21.6322 0.52332 22.5544 1.44557C23.4767 2.36782 23.9964 3.61762 24 4.92188V19.0781C23.9964 20.3824 23.4767 21.6322 22.5544 22.5544C21.6322 23.4767 20.3824 23.9964 19.0781 24H4.92188C3.61762 23.9964 2.36782 23.4767 1.44557 22.5544C0.52332 21.6322 0.00360791 20.3824 0 19.0781L0 4.92188C0.00360791 3.61762 0.52332 2.36782 1.44557 1.44557C2.36782 0.52332 3.61762 0.00360791 4.92188 0Z" fill="#111111"/>
<path fill-rule="evenodd" clip-rule="evenodd" d="M14.6973 14.5273C14.9574 14.7345 15.2753 14.8558 15.6073 14.8747C15.9392 14.8936 16.2689 14.8091 16.5508 14.6328C16.7448 14.5139 16.8939 14.3339 16.9746 14.1211H18.3711C18.1465 14.8164 17.8066 15.3105 17.3418 15.6094C16.8407 15.9202 16.2594 16.0771 15.6699 16.0606C15.249 16.066 14.8308 15.9918 14.4375 15.8418C14.0857 15.7046 13.7678 15.4927 13.5059 15.2207C13.2488 14.9424 13.0496 14.6157 12.9199 14.2598C12.7788 13.8644 12.7087 13.4471 12.7129 13.0273C12.7099 12.6154 12.782 12.2064 12.9258 11.8203C13.0584 11.4567 13.2645 11.1242 13.5313 10.8438C13.798 10.5695 14.1167 10.351 14.4688 10.2012C14.8499 10.0402 15.2601 9.95974 15.6738 9.96485C16.1186 9.95395 16.5593 10.0525 16.957 10.252C17.3125 10.4338 17.6213 10.6951 17.8594 11.0156C18.0973 11.3482 18.2673 11.7246 18.3594 12.123C18.4639 12.5436 18.5014 12.9779 18.4707 13.4102H14.3047C14.2884 13.818 14.4281 14.2168 14.6953 14.5254L14.6973 14.5273ZM9.27539 7.9375C9.62503 7.93399 9.97404 7.96804 10.3164 8.03907C10.6037 8.09537 10.8771 8.20751 11.1211 8.36914C11.3465 8.5248 11.527 8.73696 11.6445 8.98438C11.7744 9.2787 11.8364 9.59841 11.8262 9.91993C11.8388 10.2751 11.7435 10.6259 11.5527 10.9258C11.3445 11.2106 11.0649 11.4356 10.7422 11.5781C11.1849 11.6866 11.5742 11.9499 11.8398 12.3203C12.0509 12.6681 12.1726 13.0627 12.194 13.4689C12.2155 13.8751 12.1361 14.2804 11.9629 14.6484C11.8118 14.9358 11.5941 15.1829 11.3281 15.3691C11.0532 15.5598 10.7462 15.6994 10.4219 15.7813C10.0814 15.8706 9.73089 15.9159 9.37891 15.916H5.51562V7.93946H9.27539V7.9375ZM9.14453 14.5547C9.30933 14.5561 9.47376 14.5391 9.63477 14.5039C9.78203 14.4751 9.92212 14.4174 10.0469 14.334C10.1685 14.2545 10.2674 14.1448 10.334 14.0156C10.4092 13.8545 10.4447 13.6777 10.4375 13.5C10.4375 13.0898 10.3203 12.7949 10.0898 12.6172C9.82343 12.4325 9.50343 12.3412 9.17969 12.3574H7.26953V14.5527H9.14453V14.5547ZM9.04688 11.1582C9.3247 11.172 9.59931 11.0937 9.82813 10.9356C9.93336 10.8484 10.0156 10.7368 10.0677 10.6104C10.1198 10.4841 10.1402 10.3469 10.127 10.2109C10.1326 10.052 10.0984 9.89422 10.0273 9.75196C9.96367 9.6366 9.86983 9.54073 9.75586 9.47461C9.63621 9.40241 9.50345 9.35462 9.36523 9.33399C9.21638 9.30701 9.06534 9.29393 8.91406 9.29492H7.27344V11.1582H9.05078H9.04688ZM13.9785 8.58203H17.2129V9.36328H13.9785V8.58203ZM16.5176 11.4941C16.3987 11.3822 16.2582 11.2959 16.1047 11.2405C15.9512 11.185 15.7879 11.1617 15.625 11.1719C15.4075 11.164 15.1912 11.2082 14.9941 11.3008C14.8392 11.3785 14.7022 11.4876 14.5918 11.6211C14.494 11.7404 14.4222 11.8787 14.3809 12.0273C14.3418 12.1544 14.3169 12.2854 14.3066 12.418H16.8867C16.8673 12.0814 16.7384 11.7604 16.5195 11.5039L16.5176 11.4941Z" fill="white"/>
</g>
<defs>
<clipPath id="clip0_13_95">
<rect width="24" height="24" fill="white"/>
</clipPath>
</defs>
</svg>
